<mxfile host="app.diagrams.net" modified="2021-03-05T06:41:15.448Z" agent="5.0 (Macintosh; Intel Mac OS X 11_2_0) AppleWebKit/537.36 (KHTML, like Gecko) Chrome/88.0.4324.192 Safari/537.36" etag="Tdn_0ikw_7LA_mFNAV2A" version="14.4.4" type="github">
  <diagram id="Jb9UfU5ofmXKPib7j-dm" name="第 1 页">
    <mxGraphModel dx="1426" dy="665" grid="1" gridSize="10" guides="1" tooltips="1" connect="1" arrows="1" fold="1" page="1" pageScale="1" pageWidth="827" pageHeight="1169" math="0" shadow="0">
      <root>
        <mxCell id="0" />
        <mxCell id="1" parent="0" />
        <mxCell id="H6227RDKsNIXEPaSkg0y-1" value="进入界面" style="rounded=1;whiteSpace=wrap;html=1;" vertex="1" parent="1">
          <mxGeometry x="100" y="150" width="80" height="30" as="geometry" />
        </mxCell>
      </root>
    </mxGraphModel>
  </diagram>
</mxfile>
